<?xml version="1.0" encoding="UTF-8"?>
<svg width="294px" height="309px" viewBox="0 0 294 309" version="1.1" xmlns="http://www.w3.org/2000/svg" xmlns:xlink="http://www.w3.org/1999/xlink">
    <title>Group</title>
    <g id="Template" stroke="none" stroke-width="1" fill="none" fill-rule="evenodd">
        <g id="Icon" transform="translate(-109, -102)" fill="#FF9500">
            <g id="Group" transform="translate(109, 102)">
                <rect id="Rectangle" fill-opacity="0.5" x="9" y="0" width="22" height="309" rx="11"></rect>
                <path d="M97.0048164,246 L260.995184,246 C271.795789,246 279.996743,243.208045 285.598046,237.624134 C291.199349,232.040224 294,223.909394 294,213.231647 L294,95.7683534 C294,85.0906055 291.199349,76.9597763 285.598046,71.3758658 C279.996743,65.7919553 271.795789,63 260.995184,63 L97.0048164,63 C86.2485418,63 78.0586705,65.7919553 72.4352023,71.3758658 C66.8117341,76.9597763 64,85.0906055 64,95.7683534 L64,213.231647 C64,223.909394 66.8117341,232.040224 72.4352023,237.624134 C78.0586705,243.208045 86.2485418,246 97.0048164,246 Z M98.9740126,223.854438 C94.7918005,223.854438 91.6050174,222.789335 89.4136633,220.65913 C87.2223091,218.528925 86.126632,215.263535 86.126632,210.862959 L86.126632,98.1370406 C86.126632,93.7162978 87.2223091,90.4408237 89.4136633,88.3106186 C91.6050174,86.1804134 94.7918005,85.1153109 98.9740126,85.1153109 L259.024476,85.1153109 C263.184523,85.1153109 266.371054,86.1804134 268.58407,88.3106186 C270.797086,90.4408237 271.903594,93.7162978 271.903594,98.1370406 L271.903594,210.862959 C271.903594,215.263535 270.797086,218.528925 268.58407,220.65913 C266.371054,222.789335 263.184523,223.854438 259.024476,223.854438 L98.9740126,223.854438 Z" id="Shape" fill-rule="nonzero"></path>
                <path d="M261.991357,0 C272.571423,0 280.551213,2.65618269 285.930728,7.96854806 C291.310243,13.2809134 294,21.1079857 294,31.4497649 L294,37.290955 C294,42.6531125 289.653112,47 284.290955,47 C278.928798,47 274.58191,42.6531125 274.58191,37.290955 L274.58191,31.6561083 L274.58191,31.6561083 C274.58191,27.1506339 273.463471,25.2327991 271.225444,22.9379327 L270.997911,22.7121304 C268.608195,20.4169116 265.197529,19.2693023 260.765913,19.2693023 L97.2359452,19.2693023 C92.7618633,19.2693023 89.3433614,20.4169116 86.9804395,22.7121304 C84.6175177,25.0073492 83.4360567,26.794108 83.4360567,31.4497649 L83.4360567,37.2819716 C83.4360567,42.6490905 79.0851472,47 73.7180284,47 C68.3509095,47 64,42.6490905 64,37.2819716 L64,31.4497649 L64,31.4497649 C64,21.3031136 66.6022092,13.5771699 71.8059442,8.27193368 L72.1090463,7.96854806 C77.5148495,2.65618269 85.4814957,0 96.0089851,0 L261.991357,0 Z" id="Path" fill-rule="nonzero" transform="translate(179, 23.5) rotate(180) translate(-179, -23.5)"></path>
                <path d="M261.991357,262 C272.571423,262 280.551213,264.656183 285.930728,269.968548 C291.310243,275.280913 294,283.107986 294,293.449765 L294,299.290955 C294,304.653112 289.653112,309 284.290955,309 C278.928798,309 274.58191,304.653112 274.58191,299.290955 L274.58191,293.656108 L274.58191,293.656108 C274.58191,289.150634 273.463471,287.232799 271.225444,284.937933 L270.997911,284.71213 C268.608195,282.416912 265.197529,281.269302 260.765913,281.269302 L97.2359452,281.269302 C92.7618633,281.269302 89.3433614,282.416912 86.9804395,284.71213 C84.6175177,287.007349 83.4360567,288.794108 83.4360567,293.449765 L83.4360567,299.281972 C83.4360567,304.649091 79.0851472,309 73.7180284,309 C68.3509095,309 64,304.649091 64,299.281972 L64,293.449765 L64,293.449765 C64,283.303114 66.6022092,275.57717 71.8059442,270.271934 L72.1090463,269.968548 C77.5148495,264.656183 85.4814957,262 96.0089851,262 L261.991357,262 Z" id="Path" fill-rule="nonzero"></path>
                <rect id="Rectangle" x="0" y="135" width="40" height="40" rx="20"></rect>
            </g>
        </g>
    </g>
</svg>